ply
format ascii 1.0
comment File exported by Rhinoceros Version 6.0
element vertex 258
property float x
property float y
property float z
property float nx
property float ny
property float nz
element face 170
property list uchar uint vertex_index
end_header
49.41712 2052.04 4.482269E-06 0.2149677 0.1859471 -0.9587557
47.56131 2092 7.333986 0.2149677 0.1859472 -0.9587557
892 2092 196.67 0.2149677 0.1859471 -0.9587557
742 1492 46.67001 0.2149677 0.185947 -0.9587557
892 2092 196.67 0.5533715 0.06917144 -0.8300574
892 892 96.67001 0.5533715 0.06917144 -0.8300574
742 1492 46.67001 0.5533715 0.06917144 -0.8300574
300 892 46.67001 0.08399855 -0.06187892 -0.9945427
742 1492 46.67001 0.08399855 -0.06187892 -0.9945427
892 892 96.67001 0.08399855 -0.06187892 -0.9945427
48.22588 1899.096 4.707657 0.04217176 -0.03106653 -0.9986272
49.41712 2052.04 4.482269E-06 0.04217177 -0.03106653 -0.9986272
742 1492 46.67001 0.04217176 -0.03106653 -0.9986272
300 892 46.67001 0.04217176 -0.03106653 -0.9986272
26.05463 892 92.32758 -0.1638464 -0.0819232 -0.9830783
48.22588 1899.096 4.707657 -0.1638464 -0.0819232 -0.9830783
300 892 46.67001 -0.1638464 -0.0819232 -0.9830783
892 -6.828308E-05 196.67 0.08363957 -0.1110193 -0.9902924
300 892 46.67001 0.08363957 -0.1110193 -0.9902924
892 892 96.67001 0.08363957 -0.1110193 -0.9902924
300 892 46.67001 -0.163403 0.1099123 -0.9804177
48.22588 143.3916 4.707657 -0.163403 0.1099123 -0.9804177
26.05463 892 92.32758 -0.163403 0.1099123 -0.9804177
47.56131 -6.828308E-05 7.333986 0.2187443 -0.01888265 -0.9755995
48.22588 143.3916 4.707657 0.2187444 -0.01888266 -0.9755995
300 892 46.67001 0.2187443 -0.01888265 -0.9755995
892 -6.828308E-05 196.67 0.2187443 -0.01888264 -0.9755995
892 2092 246.67 1 0 0
892 -6.828308E-05 246.67 1 0 0
892 -6.828308E-05 196.67 1 0 0
892 892 96.67001 1 0 0
892 1492 146.67 1 0 0
892 2092 196.67 1 0 0
6.771088E-06 -6.828308E-05 246.67 -1 0 0
6.771088E-06 1982 246.67 -1 0 0
6.771088E-06 1983.587 237.67 -1 0 0
6.771088E-06 2088 237.67 -1 0 0
6.771088E-06 2088 200.3753 -1 0 0
6.771088E-06 2092 199.67 -1 0 0
6.771088E-06 2092 195.2945 -1 0 0
6.771088E-06 -6.828308E-05 195.2945 -1 0 0
49.41712 2052.04 4.482269E-06 -0.9694453 -2.636053E-07 -0.2453074
48.22588 1899.096 4.707657 -0.9694453 7.679211E-08 -0.2453074
26.05463 892 92.32758 -0.9694453 -7.278695E-10 -0.2453073
48.22588 143.3916 4.707657 -0.9694453 8.430897E-09 -0.2453073
47.56131 -6.828308E-05 7.333986 -0.9694453 2.536936E-08 -0.2453073
6.771088E-06 -6.828308E-05 195.2945 -0.9694453 5.620598E-09 -0.2453073
6.771088E-06 2092 195.2945 -0.9694453 -1.302217E-07 -0.2453073
47.56131 2092 7.333986 -0.9694453 -6.744709E-07 -0.2453073
740 -6.828308E-05 246.67 0 -1 0
740 -6.828308E-05 196.67 0 -1 0
632 -6.828308E-05 196.67 0 -1 0
632 -6.828308E-05 246.67 0 -1 0
260 -6.828308E-05 246.67 0 -1 0
260 -6.828308E-05 196.67 0 -1 0
152 -6.828308E-05 196.67 0 -1 0
152 -6.828308E-05 246.67 0 -1 0
6.771088E-06 -6.828308E-05 246.67 0 -1 0
6.771088E-06 -6.828308E-05 195.2945 0 -1 0
47.56131 -6.828308E-05 7.333986 0 -1 0
892 -6.828308E-05 196.67 0 -1 0
892 -6.828308E-05 246.67 0 -1 0
803.5 -6.828308E-05 222.67 0 -1 0
805.0529 -6.828308E-05 222.4656 0 -1 0
806.5 -6.828308E-05 221.8662 0 -1 0
807.7426 -6.828308E-05 220.9127 0 -1 0
808.6962 -6.828308E-05 219.67 0 -1 0
809.2955 -6.828308E-05 218.2229 0 -1 0
809.5 -6.828308E-05 216.67 0 -1 0
809.2955 -6.828308E-05 215.1171 0 -1 0
808.6962 -6.828308E-05 213.67 0 -1 0
807.7426 -6.828308E-05 212.4274 0 -1 0
806.5 -6.828308E-05 211.4739 0 -1 0
805.0529 -6.828308E-05 210.8745 0 -1 0
803.5 -6.828308E-05 210.67 0 -1 0
788.5 -6.828308E-05 210.67 0 -1 0
786.9471 -6.828308E-05 210.8745 0 -1 0
785.5 -6.828308E-05 211.4739 0 -1 0
784.2574 -6.828308E-05 212.4274 0 -1 0
783.3038 -6.828308E-05 213.67 0 -1 0
782.7045 -6.828308E-05 215.1171 0 -1 0
782.5 -6.828308E-05 216.67 0 -1 0
782.7045 -6.828308E-05 218.2229 0 -1 0
783.3038 -6.828308E-05 219.67 0 -1 0
784.2574 -6.828308E-05 220.9127 0 -1 0
785.5 -6.828308E-05 221.8662 0 -1 0
786.9471 -6.828308E-05 222.4656 0 -1 0
788.5 -6.828308E-05 222.67 0 -1 0
103.5 -6.828308E-05 210.67 0 -1 0
88.49998 -6.828308E-05 210.67 0 -1 0
86.9471 -6.828308E-05 210.8745 0 -1 0
85.49998 -6.828308E-05 211.4739 0 -1 0
84.25736 -6.828308E-05 212.4274 0 -1 0
83.30386 -6.828308E-05 213.67 0 -1 0
82.70444 -6.828308E-05 215.1171 0 -1 0
82.49998 -6.828308E-05 216.67 0 -1 0
82.70444 -6.828308E-05 218.2229 0 -1 0
83.30386 -6.828308E-05 219.67 0 -1 0
84.25736 -6.828308E-05 220.9127 0 -1 0
85.49998 -6.828308E-05 221.8662 0 -1 0
86.9471 -6.828308E-05 222.4656 0 -1 0
88.49998 -6.828308E-05 222.67 0 -1 0
103.5 -6.828308E-05 222.67 0 -1 0
105.0529 -6.828308E-05 222.4656 0 -1 0
106.5 -6.828308E-05 221.8662 0 -1 0
107.7426 -6.828308E-05 220.9127 0 -1 0
108.6962 -6.828308E-05 219.67 0 -1 0
109.2956 -6.828308E-05 218.2229 0 -1 0
109.5 -6.828308E-05 216.67 0 -1 0
109.2956 -6.828308E-05 215.1171 0 -1 0
108.6962 -6.828308E-05 213.67 0 -1 0
107.7426 -6.828308E-05 212.4274 0 -1 0
106.5 -6.828308E-05 211.4739 0 -1 0
105.0529 -6.828308E-05 210.8745 0 -1 0
892 2092 196.67 0 1 0
47.56131 2092 7.333986 0 1 0
6.771088E-06 2092 195.2945 0 1 0
6.771088E-06 2092 199.67 0 1 0
152 2092 199.67 0 1 0
152 2092 196.67 0 1 0
260 2092 196.67 0 1 0
260 2092 199.67 0 1 0
632 2092 199.67 0 1 0
632 2092 196.67 0 1 0
740 2092 196.67 0 1 0
740 2092 199.67 0 1 0
847 2092 199.67 0 1 0
847 2092 246.67 0 1 0
892 2092 246.67 0 1 0
892 2092 196.67 0 1 0
47.56131 2092 7.333986 0 1 0
6.771088E-06 2092 195.2945 0 1 0
6.771088E-06 2092 199.67 0 1 0
152 2092 199.67 0 1 0
152 2092 196.67 0 1 0
260 2092 196.67 0 1 0
260 2092 199.67 0 1 0
632 2092 199.67 0 1 0
632 2092 196.67 0 1 0
740 2092 196.67 0 1 0
740 2092 199.67 0 1 0
847 2092 199.67 0 1 0
847 2092 246.67 0 1 0
892 2092 246.67 0 1 0
740 -6.828308E-05 246.67 0 -1 0
740 -6.828308E-05 196.67 0 -1 0
632 -6.828308E-05 196.67 0 -1 0
632 -6.828308E-05 246.67 0 -1 0
260 -6.828308E-05 246.67 0 -1 0
260 -6.828308E-05 196.67 0 -1 0
152 -6.828308E-05 196.67 0 -1 0
152 -6.828308E-05 246.67 0 -1 0
6.771088E-06 -6.828308E-05 246.67 0 -1 0
6.771088E-06 -6.828308E-05 195.2945 0 -1 0
47.56131 -6.828308E-05 7.333986 0 -1 0
892 -6.828308E-05 196.67 0 -1 0
892 -6.828308E-05 246.67 0 -1 0
803.5 -6.828308E-05 222.67 0 -1 0
805.0529 -6.828308E-05 222.4656 0 -1 0
806.5 -6.828308E-05 221.8662 0 -1 0
807.7426 -6.828308E-05 220.9127 0 -1 0
808.6962 -6.828308E-05 219.67 0 -1 0
809.2955 -6.828308E-05 218.2229 0 -1 0
809.5 -6.828308E-05 216.67 0 -1 0
809.2955 -6.828308E-05 215.1171 0 -1 0
808.6962 -6.828308E-05 213.67 0 -1 0
807.7426 -6.828308E-05 212.4274 0 -1 0
806.5 -6.828308E-05 211.4739 0 -1 0
805.0529 -6.828308E-05 210.8745 0 -1 0
803.5 -6.828308E-05 210.67 0 -1 0
788.5 -6.828308E-05 210.67 0 -1 0
786.9471 -6.828308E-05 210.8745 0 -1 0
785.5 -6.828308E-05 211.4739 0 -1 0
784.2574 -6.828308E-05 212.4274 0 -1 0
783.3038 -6.828308E-05 213.67 0 -1 0
782.7045 -6.828308E-05 215.1171 0 -1 0
782.5 -6.828308E-05 216.67 0 -1 0
782.7045 -6.828308E-05 218.2229 0 -1 0
783.3038 -6.828308E-05 219.67 0 -1 0
784.2574 -6.828308E-05 220.9127 0 -1 0
785.5 -6.828308E-05 221.8662 0 -1 0
786.9471 -6.828308E-05 222.4656 0 -1 0
788.5 -6.828308E-05 222.67 0 -1 0
103.5 -6.828308E-05 210.67 0 -1 0
88.49998 -6.828308E-05 210.67 0 -1 0
86.9471 -6.828308E-05 210.8745 0 -1 0
85.49998 -6.828308E-05 211.4739 0 -1 0
84.25736 -6.828308E-05 212.4274 0 -1 0
83.30386 -6.828308E-05 213.67 0 -1 0
82.70444 -6.828308E-05 215.1171 0 -1 0
82.49998 -6.828308E-05 216.67 0 -1 0
82.70444 -6.828308E-05 218.2229 0 -1 0
83.30386 -6.828308E-05 219.67 0 -1 0
84.25736 -6.828308E-05 220.9127 0 -1 0
85.49998 -6.828308E-05 221.8662 0 -1 0
86.9471 -6.828308E-05 222.4656 0 -1 0
88.49998 -6.828308E-05 222.67 0 -1 0
103.5 -6.828308E-05 222.67 0 -1 0
105.0529 -6.828308E-05 222.4656 0 -1 0
106.5 -6.828308E-05 221.8662 0 -1 0
107.7426 -6.828308E-05 220.9127 0 -1 0
108.6962 -6.828308E-05 219.67 0 -1 0
109.2956 -6.828308E-05 218.2229 0 -1 0
109.5 -6.828308E-05 216.67 0 -1 0
109.2956 -6.828308E-05 215.1171 0 -1 0
108.6962 -6.828308E-05 213.67 0 -1 0
107.7426 -6.828308E-05 212.4274 0 -1 0
106.5 -6.828308E-05 211.4739 0 -1 0
105.0529 -6.828308E-05 210.8745 0 -1 0
49.41712 2052.04 4.482269E-06 -0.9694453 -2.636053E-07 -0.2453074
48.22588 1899.096 4.707657 -0.9694453 7.679211E-08 -0.2453074
26.05463 892 92.32758 -0.9694453 -7.278695E-10 -0.2453073
48.22588 143.3916 4.707657 -0.9694453 8.430897E-09 -0.2453073
47.56131 -6.828308E-05 7.333986 -0.9694453 2.536936E-08 -0.2453073
6.771088E-06 -6.828308E-05 195.2945 -0.9694453 5.620598E-09 -0.2453073
6.771088E-06 2092 195.2945 -0.9694453 -1.302217E-07 -0.2453073
47.56131 2092 7.333986 -0.9694453 -6.744709E-07 -0.2453073
6.771088E-06 -6.828308E-05 246.67 -1 0 0
6.771088E-06 1982 246.67 -1 0 0
6.771088E-06 1983.587 237.67 -1 0 0
6.771088E-06 2088 237.67 -1 0 0
6.771088E-06 2088 200.3753 -1 0 0
6.771088E-06 2092 199.67 -1 0 0
6.771088E-06 2092 195.2945 -1 0 0
6.771088E-06 -6.828308E-05 195.2945 -1 0 0
892 2092 246.67 1 0 0
892 -6.828308E-05 246.67 1 0 0
892 -6.828308E-05 196.67 1 0 0
892 892 96.67001 1 0 0
892 1492 146.67 1 0 0
892 2092 196.67 1 0 0
49.41712 2052.04 4.482269E-06 0.2149677 0.1859471 -0.9587557
47.56131 2092 7.333986 0.2149677 0.1859472 -0.9587557
892 2092 196.67 0.2149677 0.1859471 -0.9587557
742 1492 46.67001 0.2149677 0.185947 -0.9587557
892 2092 196.67 0.5533715 0.06917144 -0.8300574
892 892 96.67001 0.5533715 0.06917144 -0.8300574
742 1492 46.67001 0.5533715 0.06917144 -0.8300574
300 892 46.67001 0.08399855 -0.06187892 -0.9945427
742 1492 46.67001 0.08399855 -0.06187892 -0.9945427
892 892 96.67001 0.08399855 -0.06187892 -0.9945427
48.22588 1899.096 4.707657 0.04217176 -0.03106653 -0.9986272
49.41712 2052.04 4.482269E-06 0.04217177 -0.03106653 -0.9986272
742 1492 46.67001 0.04217176 -0.03106653 -0.9986272
300 892 46.67001 0.04217176 -0.03106653 -0.9986272
26.05463 892 92.32758 -0.1638464 -0.0819232 -0.9830783
48.22588 1899.096 4.707657 -0.1638464 -0.0819232 -0.9830783
300 892 46.67001 -0.1638464 -0.0819232 -0.9830783
892 -6.828308E-05 196.67 0.08363957 -0.1110193 -0.9902924
300 892 46.67001 0.08363957 -0.1110193 -0.9902924
892 892 96.67001 0.08363957 -0.1110193 -0.9902924
300 892 46.67001 -0.163403 0.1099123 -0.9804177
48.22588 143.3916 4.707657 -0.163403 0.1099123 -0.9804177
26.05463 892 92.32758 -0.163403 0.1099123 -0.9804177
47.56131 -6.828308E-05 7.333986 0.2187443 -0.01888265 -0.9755995
48.22588 143.3916 4.707657 0.2187444 -0.01888266 -0.9755995
300 892 46.67001 0.2187443 -0.01888265 -0.9755995
892 -6.828308E-05 196.67 0.2187443 -0.01888264 -0.9755995
3 0 1 2
3 2 3 0
3 5 6 4
3 7 8 9
3 10 11 12
3 12 13 10
3 14 15 16
3 17 18 19
3 20 21 22
3 23 24 25
3 25 26 23
4 28 29 30 31
4 27 28 31 32
4 35 37 39 40
3 38 39 37
4 34 35 40 33
3 35 36 37
3 46 43 44
3 43 46 47
3 44 45 46
3 47 48 41
3 41 42 47
3 47 42 43
3 98 99 57
3 100 57 99
4 57 100 101 56
4 95 96 57 58
3 57 97 98
3 97 57 96
3 56 102 103
3 104 56 103
3 56 101 102
4 107 55 56 106
3 56 104 105
3 106 56 105
3 58 93 94
3 58 91 92
3 58 92 93
4 90 58 59 89
3 90 91 58
4 88 89 59 55
3 95 58 94
3 55 110 111
3 55 108 109
3 55 109 110
3 55 113 88
3 113 55 112
3 111 112 55
3 55 107 108
4 54 55 59 51
3 49 86 87
3 87 62 49
3 86 49 85
4 82 83 49 50
3 49 84 85
3 84 49 83
4 62 63 61 49
3 65 61 64
3 63 64 61
3 61 65 66
4 61 67 68 60
3 67 61 66
3 50 80 81
3 50 78 79
3 50 79 80
4 54 51 52 53
3 76 77 50
3 78 50 77
4 59 60 50 51
3 50 81 82
3 60 71 72
3 60 69 70
3 60 70 71
4 74 75 50 60
3 60 73 74
3 72 73 60
3 76 50 75
3 60 68 69
4 115 119 120 123
4 120 121 122 123
4 119 116 117 118
3 119 115 116
4 124 125 126 114
4 128 114 126 127
4 124 114 115 123
4 130 134 135 138
4 135 136 137 138
4 134 131 132 133
3 134 130 131
4 139 140 141 129
4 143 129 141 142
4 139 129 130 138
3 193 194 152
3 195 152 194
4 152 195 196 151
4 190 191 152 153
3 152 192 193
3 192 152 191
3 151 197 198
3 199 151 198
3 151 196 197
4 202 150 151 201
3 151 199 200
3 201 151 200
3 153 188 189
3 153 186 187
3 153 187 188
4 185 153 154 184
3 185 186 153
4 183 184 154 150
3 190 153 189
3 150 205 206
3 150 203 204
3 150 204 205
3 150 208 183
3 208 150 207
3 206 207 150
3 150 202 203
4 149 150 154 146
3 144 181 182
3 182 157 144
3 181 144 180
4 177 178 144 145
3 144 179 180
3 179 144 178
4 157 158 156 144
3 160 156 159
3 158 159 156
3 156 160 161
4 156 162 163 155
3 162 156 161
3 145 175 176
3 145 173 174
3 145 174 175
4 149 146 147 148
3 171 172 145
3 173 145 172
4 154 155 145 146
3 145 176 177
3 155 166 167
3 155 164 165
3 155 165 166
4 169 170 145 155
3 155 168 169
3 167 168 155
3 171 145 170
3 155 163 164
3 214 211 212
3 211 214 215
3 212 213 214
3 215 216 209
3 209 210 215
3 215 210 211
4 219 221 223 224
3 222 223 221
4 218 219 224 217
3 219 220 221
4 226 227 228 229
4 225 226 229 230
3 231 232 233
3 233 234 231
3 236 237 235
3 238 239 240
3 241 242 243
3 243 244 241
3 245 246 247
3 248 249 250
3 251 252 253
3 254 255 256
3 256 257 254
